<svg width="106" height="100" viewBox="0 0 106 100" fill="none" xmlns="http://www.w3.org/2000/svg">
<path d="M26.6478 50.8301H16.0144L20.4297 40.9619H8.80309L6.46094 46.2361H14.5603L12.5683 50.6638H0.684589C0.190247 50.6638 -0.140765 50.1574 0.0592226 49.707L5.36865 37.751C5.69715 37.0113 6.43274 36.5342 7.24475 36.5342H25.159C26.1476 36.5342 26.8097 37.547 26.4097 38.4477L22.8772 46.4024H31.9509C32.6964 46.4024 33.1929 47.1695 32.8852 47.8459L26.1438 62.666C25.9222 63.1531 25.435 63.4661 24.8981 63.4661H5.48403C4.98704 63.4661 4.65605 62.9547 4.86117 62.5037L8.85337 53.7274H13.7332L11.3174 59.0383H22.9141L26.6478 50.8301Z" fill="#13150F"/>
<path d="M39.1841 41.8252H54.6839V44.1011L45.7764 56.4617H54.7623V61.1704H38.4778V59.1692L47.7384 46.1808H39.1841V41.8252Z" fill="#13150F"/>
<path fill-rule="evenodd" clip-rule="evenodd" d="M76.8139 52.6947H61.7066C61.8635 53.9242 62.4521 54.9183 63.4724 55.6769C64.4926 56.4356 65.8268 56.8149 67.4748 56.8149C68.4166 56.8149 69.3845 56.6579 70.3786 56.344C71.3727 56.0039 72.1313 55.5592 72.6545 55.0099L75.7152 58.0313C74.7473 59.0516 73.5047 59.8364 71.9874 60.3857C70.4701 60.9089 68.9398 61.1705 67.3964 61.1705C64.1002 61.1705 61.4973 60.2418 59.5876 58.3845C57.7041 56.501 56.7624 53.9896 56.7624 50.8504C56.7624 47.8682 57.691 45.4353 59.5484 43.5518C61.4319 41.6683 63.9302 40.7266 67.0432 40.7266C70.3655 40.7266 72.9161 41.7599 74.695 43.8265C76.4738 45.867 77.1802 48.823 76.8139 52.6947ZM61.7851 48.7315H72.2229C72.0659 47.502 71.5427 46.5733 70.6533 45.9455C69.7638 45.2915 68.6128 44.9645 67.2002 44.9645C65.866 44.9645 64.715 45.2915 63.7471 45.9455C62.7791 46.5733 62.1251 47.502 61.7851 48.7315Z" fill="#13150F"/>
<path fill-rule="evenodd" clip-rule="evenodd" d="M95.1137 36.5342V44.0227C94.5905 43.0809 93.6749 42.3354 92.367 41.786C91.0851 41.2105 89.8818 40.9227 88.7569 40.9227C85.827 40.9227 83.4464 41.7991 81.6152 43.5518C79.8102 45.3045 78.9077 47.8028 78.9077 51.0466C78.9077 54.1596 79.8364 56.6317 81.6937 58.4629C83.5772 60.268 85.9709 61.1705 88.8746 61.1705C91.6999 61.1705 93.7796 60.1372 95.1137 58.0705L95.4278 61.1082H99.9012L99.901 36.5342H95.1137ZM85.2645 46.9657C86.3109 45.9193 87.6189 45.3961 89.1885 45.3961C90.732 45.3961 92.053 45.9323 93.1517 47.0049C94.2505 48.0513 94.7998 49.3985 94.7998 51.0466C94.7998 52.747 94.2505 54.1204 93.1517 55.1668C92.0792 56.2132 90.7581 56.7364 89.1885 56.7364C87.6451 56.7364 86.3371 56.2132 85.2645 55.1668C84.2181 54.0942 83.6949 52.7208 83.6949 51.0466C83.6949 49.3462 84.2181 47.9859 85.2645 46.9657Z" fill="#13150F"/>
</svg>
