<svg width="48" height="52" viewBox="0 0 48 52" fill="none" xmlns="http://www.w3.org/2000/svg">
<path id="Vector" d="M47.0248 36.783C46.7695 36.1703 46.5142 35.5066 46.2589 34.945C45.8505 34.026 45.4421 33.1581 45.0847 32.3412L45.0336 32.2902C41.5109 24.632 37.7328 16.8717 33.7505 9.21347L33.5974 8.90715C33.1889 8.14133 32.7805 7.32445 32.3721 6.50758C31.8615 5.58859 31.351 4.61855 30.5341 3.69957C28.9004 1.65738 26.5518 0.53418 24.0502 0.53418C21.4974 0.53418 19.2 1.65738 17.5152 3.59746C16.7493 4.51644 16.1877 5.48648 15.6772 6.40547C15.2688 7.22234 14.8603 8.03922 14.4519 8.80504L14.2987 9.11136C10.3675 16.7696 6.53841 24.5299 3.01563 32.1881L2.96458 32.2902C2.6072 33.1071 2.19876 33.975 1.79032 34.894C1.53505 35.4556 1.27977 36.0682 1.0245 36.7319C0.36079 38.621 0.156571 40.4079 0.411845 42.2458C0.973446 46.0749 3.52618 49.2914 7.04895 50.7209C8.37637 51.2825 9.75485 51.5378 11.1844 51.5378C11.5928 51.5378 12.1034 51.4867 12.5118 51.4357C14.1966 51.2315 15.9325 50.6699 17.6173 49.6998C19.7105 48.5256 21.7016 46.8408 23.948 44.3901C26.1945 46.8408 28.2366 48.5256 30.2788 49.6998C31.9636 50.6699 33.6995 51.2315 35.3843 51.4357C35.7927 51.4867 36.3033 51.5378 36.7117 51.5378C38.1413 51.5378 39.5708 51.2825 40.8471 50.7209C44.421 49.2914 46.9227 46.0239 47.4843 42.2458C47.8927 40.4589 47.6885 38.672 47.0248 36.783ZM23.9991 39.4378C21.2422 35.9661 19.4552 32.6986 18.8426 29.9417C18.5873 28.7674 18.5363 27.7463 18.6894 26.8273C18.7915 26.0105 19.0979 25.2957 19.5063 24.683C20.4763 23.3046 22.1101 22.4366 23.9991 22.4366C25.8881 22.4366 27.5729 23.2535 28.4919 24.683C28.9004 25.2957 29.2067 26.0105 29.3088 26.8273C29.462 27.7463 29.4109 28.8185 29.1556 29.9417C28.543 32.6476 26.7561 35.9151 23.9991 39.4378ZM44.3699 41.8374C44.0125 44.4923 42.2256 46.7897 39.7239 47.8108C38.4986 48.3214 37.1712 48.4745 35.8438 48.3214C34.5674 48.1682 33.2911 47.7598 31.9636 46.9939C30.1257 45.9728 28.2877 44.3901 26.1434 42.0416C29.513 37.9062 31.5552 34.1282 32.321 30.7585C32.6784 29.1759 32.7295 27.7463 32.5763 26.4189C32.3721 25.1425 31.9126 23.9683 31.1978 22.9472C29.6151 20.6497 26.9603 19.3223 23.9991 19.3223C21.0379 19.3223 18.3831 20.7008 16.8004 22.9472C16.0856 23.9683 15.6261 25.1425 15.4219 26.4189C15.2177 27.7463 15.2688 29.2269 15.6772 30.7585C16.443 34.1282 18.5363 37.9573 21.8548 42.0927C19.7616 44.4412 17.8725 46.0239 16.0346 47.045C14.7072 47.8108 13.4308 48.2192 12.1544 48.3724C10.7759 48.5256 9.44852 48.3214 8.27426 47.8619C5.77259 46.8408 3.98567 44.5433 3.62829 41.8885C3.47513 40.6121 3.57723 39.3357 4.08778 37.9062C4.24095 37.3957 4.49622 36.8851 4.75149 36.2725C5.10887 35.4556 5.51731 34.5876 5.92575 33.7197L5.9768 33.6176C9.49958 26.0105 13.2776 18.2502 17.2088 10.6941L17.362 10.3877C17.7704 9.62191 18.1789 8.80504 18.5873 8.03922C18.9957 7.22234 19.4552 6.45652 20.0168 5.79281C21.089 4.5675 22.5185 3.90379 24.1012 3.90379C25.6839 3.90379 27.1134 4.5675 28.1856 5.79281C28.7472 6.45652 29.2067 7.22234 29.6151 8.03922C30.0236 8.80504 30.432 9.62191 30.8404 10.3877L30.9936 10.6941C34.8737 18.3012 38.6518 26.0615 42.1746 33.6687V33.7197C42.583 34.5366 42.9404 35.4556 43.3488 36.2725C43.6041 36.8851 43.8594 37.3957 44.0125 37.9062C44.421 39.2336 44.5741 40.51 44.3699 41.8374Z" fill="#FF5A5F"/>
</svg>
