<svg width="53" height="54" viewBox="0 0 53 54" fill="none" xmlns="http://www.w3.org/2000/svg">
<g id="Group">
<path id="Vector" d="M46.3488 44.2675C24.3423 54.7408 10.6849 45.9781 1.94228 40.6559C1.40129 40.3204 0.481801 40.7343 1.27958 41.6506C4.19217 45.1822 13.7373 53.6943 26.1966 53.6943C38.6644 53.6943 46.0816 46.8913 47.0094 45.7046C47.931 44.5279 47.28 43.8788 46.3486 44.2675H46.3488ZM52.5293 40.8543C51.9383 40.0848 48.9358 39.9413 47.0462 40.1734C45.1537 40.3988 42.3131 41.5555 42.56 42.25C42.6867 42.5101 42.9454 42.3934 44.2455 42.2765C45.5492 42.1464 49.2012 41.6855 49.9622 42.6803C50.7267 43.682 48.7974 48.4536 48.445 49.2232C48.1046 49.9927 48.5751 50.1912 49.2146 49.6786C49.8453 49.1663 50.987 47.8395 51.7533 45.9618C52.5142 44.0739 52.9785 41.4403 52.5293 40.8543Z" fill="#FF9900"/>
<path id="Vector_2" fill-rule="evenodd" clip-rule="evenodd" d="M31.552 22.8975C31.552 25.6455 31.6215 27.9372 30.2325 30.3776C29.1114 32.3619 27.3356 33.5821 25.3515 33.5821C22.643 33.5821 21.0656 31.5186 21.0656 28.473C21.0656 22.4608 26.4525 21.3697 31.552 21.3697V22.8975ZM38.6652 40.0903C38.1989 40.5069 37.5242 40.5368 36.9985 40.2588C34.6572 38.3145 34.2405 37.4117 32.9508 35.5564C29.0817 39.505 26.3436 40.6854 21.3237 40.6854C15.391 40.6854 10.7679 37.0246 10.7679 29.6932C10.7679 23.969 13.8732 20.07 18.2877 18.1654C22.1173 16.4786 27.4646 16.181 31.552 15.7149V14.8021C31.552 13.1254 31.6809 11.1413 30.6989 9.69297C29.8356 8.3933 28.1888 7.85754 26.7403 7.85754C24.0518 7.85754 21.651 9.23646 21.0656 12.0936C20.9464 12.7287 20.4803 13.3538 19.8454 13.3835L13 12.6495C12.4247 12.5202 11.7898 12.0541 11.9485 11.171C13.5259 2.87741 21.0159 0.377197 27.7223 0.377197C31.1549 0.377197 35.639 1.29 38.3475 3.88933C41.7802 7.09364 41.4527 11.3695 41.4527 16.0223V27.0146C41.4527 30.3182 42.8218 31.7666 44.1114 33.5524C44.5677 34.1873 44.6671 34.9514 44.0916 35.4274C42.6531 36.6277 40.0935 38.8601 38.6848 40.1102L38.665 40.0903" fill="#13150F"/>
<path id="Vector_3" d="M46.3488 44.2675C24.3423 54.7408 10.6849 45.9781 1.94228 40.6559C1.40129 40.3204 0.481801 40.7343 1.27958 41.6506C4.19217 45.1822 13.7373 53.6943 26.1966 53.6943C38.6644 53.6943 46.0816 46.8913 47.0094 45.7046C47.931 44.5279 47.28 43.8788 46.3486 44.2675H46.3488ZM52.5293 40.8543C51.9383 40.0848 48.9358 39.9413 47.0462 40.1734C45.1537 40.3988 42.3131 41.5555 42.56 42.25C42.6867 42.5101 42.9454 42.3934 44.2455 42.2765C45.5492 42.1464 49.2012 41.6855 49.9622 42.6803C50.7267 43.682 48.7974 48.4536 48.445 49.2232C48.1046 49.9927 48.5751 50.1912 49.2146 49.6786C49.8453 49.1663 50.987 47.8395 51.7533 45.9618C52.5142 44.0739 52.9785 41.4403 52.5293 40.8543Z" fill="#FF9900"/>
<path id="Vector_4" fill-rule="evenodd" clip-rule="evenodd" d="M31.552 22.8975C31.552 25.6455 31.6215 27.9372 30.2325 30.3776C29.1114 32.3619 27.3356 33.5821 25.3515 33.5821C22.643 33.5821 21.0656 31.5186 21.0656 28.473C21.0656 22.4608 26.4525 21.3697 31.552 21.3697V22.8975ZM38.6652 40.0903C38.1989 40.5069 37.5242 40.5368 36.9985 40.2588C34.6572 38.3145 34.2405 37.4117 32.9508 35.5564C29.0817 39.505 26.3436 40.6854 21.3237 40.6854C15.391 40.6854 10.7679 37.0246 10.7679 29.6932C10.7679 23.969 13.8732 20.07 18.2877 18.1654C22.1173 16.4786 27.4646 16.181 31.552 15.7149V14.8021C31.552 13.1254 31.6809 11.1413 30.6989 9.69297C29.8356 8.3933 28.1888 7.85754 26.7403 7.85754C24.0518 7.85754 21.651 9.23646 21.0656 12.0936C20.9464 12.7287 20.4803 13.3538 19.8454 13.3835L13 12.6495C12.4247 12.5202 11.7898 12.0541 11.9485 11.171C13.5259 2.87741 21.0159 0.377197 27.7223 0.377197C31.1549 0.377197 35.639 1.29 38.3475 3.88933C41.7802 7.09364 41.4527 11.3695 41.4527 16.0223V27.0146C41.4527 30.3182 42.8218 31.7666 44.1114 33.5524C44.5677 34.1873 44.6671 34.9514 44.0916 35.4274C42.6531 36.6277 40.0935 38.8601 38.6848 40.1102L38.665 40.0903" fill="#13150F"/>
</g>
</svg>
