<svg width="108" height="53" viewBox="0 0 108 53" fill="none" xmlns="http://www.w3.org/2000/svg">
<g id="Group 44311">
<g id="letters">
<path id="letter-s" d="M0.099472 51.0654H1.11758C1.15394 51.3926 1.26302 51.6108 1.40846 51.7199C1.55391 51.8653 1.80843 51.9017 2.13568 51.9017C2.75381 51.9017 3.0447 51.6471 3.0447 51.1744C3.0447 50.9563 2.97198 50.7745 2.86289 50.6654C2.75381 50.5563 2.53564 50.4836 2.28112 50.4109L1.73571 50.3381C0.717605 50.1563 0.208556 49.6473 0.208556 48.7746C0.208556 48.2656 0.390357 47.8293 0.717604 47.5384C1.08121 47.2475 1.51754 47.0657 2.09932 47.0657C2.64473 47.0657 3.08106 47.2111 3.40831 47.502C3.73555 47.7929 3.91736 48.2292 3.95372 48.7383H2.93561C2.93561 48.4474 2.82653 48.2656 2.68109 48.1565C2.53565 48.0474 2.31748 47.9747 2.06295 47.9747C1.77207 47.9747 1.59026 48.0474 1.44482 48.1565C1.29938 48.2656 1.22666 48.4474 1.22666 48.7019C1.22666 48.8837 1.29938 49.0655 1.40846 49.1746C1.51754 49.2837 1.73571 49.3564 1.99023 49.4291L2.57201 49.5382C3.55375 49.72 4.02644 50.2291 4.02644 51.1381C4.02644 51.7199 3.84463 52.1562 3.48103 52.4471C3.11742 52.738 2.64473 52.8834 2.02659 52.8834C1.40846 52.8834 0.935768 52.738 0.608521 52.4471C0.317635 52.0835 0.135833 51.6471 0.099472 51.0654Z" fill="#13150F"/>
<path id="letter-t" d="M9.00789 48.0833V52.8102H7.91706V48.0833H6.46263V47.1379H10.426V48.0833H9.00789Z" fill="#13150F"/>
<path id="letter-a" d="M13.5168 51.683L13.1895 52.7739H12.0624L14.0622 47.1379H14.9349L16.9347 52.7739H15.8075L15.4803 51.683H13.5168ZM14.4985 48.6287L13.8077 50.8104H15.1894L14.4985 48.6287Z" fill="#13150F"/>
<path id="letter-r" d="M20.5705 50.5202V52.811H19.5161V47.175H21.6614C22.2068 47.175 22.6431 47.3205 22.9704 47.6114C23.2976 47.9023 23.4794 48.3386 23.4794 48.8476C23.4794 49.2113 23.4067 49.5385 23.2249 49.793C23.0431 50.0476 22.7886 50.2294 22.4977 50.3748L23.7339 52.8473H22.4977L21.4432 50.5566H20.5705V50.5202ZM21.5887 49.6112C21.8432 49.6112 22.025 49.5385 22.1704 49.3931C22.3159 49.2476 22.3886 49.0658 22.3886 48.8113C22.3886 48.5931 22.3159 48.4113 22.1704 48.2659C22.025 48.1204 21.8432 48.0477 21.5887 48.0477H20.5705V49.5749H21.5887V49.6112Z" fill="#13150F"/>
<path id="letter-l" d="M27.4428 47.1379V51.8648H29.9153V52.8102H26.3883V47.1743H27.4428V47.1379Z" fill="#13150F"/>
<path id="letter-i" d="M33.7697 47.1379V52.8102H32.7153V47.1743H33.7697V47.1379Z" fill="#13150F"/>
<path id="letter-n" d="M41.0779 52.811H40.0234L37.9509 49.284V52.811H36.8237V47.175H37.8781L39.9507 50.702V47.175H41.0052V52.811H41.0779Z" fill="#13150F"/>
<path id="letter-k" d="M45.1506 51.2104V52.7739H44.0962V47.1379H45.1506V49.7559L47.1141 47.1379H48.3867L46.5687 49.3923L48.5322 52.7739H47.2959L45.9142 50.265L45.1506 51.2104Z" fill="#13150F"/>
</g>
<g id="Group 44310">
<path id="path17" d="M1.69898 40.1572L0.280914 41.5389H12.8254C46.6409 7.5779 95.328 1.54201 107.727 0.52391V0.487549C40.0596 4.37815 8.78934 33.3213 1.69898 40.1572Z" fill="#13150F"/>
<path id="path20" d="M36.1693 41.5383H48.5683L31.4061 28.8848C29.3335 30.3028 27.1882 31.9027 25.152 33.5026L36.1693 41.5383Z" fill="#13150F"/>
<path id="path22" d="M13.5161 15.5769H1.11708L15.6614 26.2306C17.7703 24.8125 20.2065 23.2854 22.4609 21.9764L13.5161 15.5769Z" fill="#13150F"/>
</g>
</g>
</svg>
