<svg width="85" height="37" viewBox="0 0 85 37" fill="none" xmlns="http://www.w3.org/2000/svg">
<path id="path815" d="M80.0646 34.9667L67.6312 0.734991L67.6227 0.712402H67.3773L64.817 7.74694L60.1558 20.5534L60.1449 20.5433C58.5294 19.1178 56.2503 18.2267 53.3799 17.8949L52.5044 17.8045L53.3729 17.6931C58.1065 16.8425 61.2884 13.853 61.2884 10.2512C61.2884 5.312 56.6428 1.86445 49.9884 1.86445H36.1429V2.11449H40.1661V27.6362L30.3952 0.734991L30.3866 0.712402H30.1412L27.5809 7.74694L17.7056 34.8787L17.6448 34.8857C17.476 34.9065 17.3091 34.9231 17.144 34.9356C16.8955 34.9551 16.6486 34.9667 16.4009 34.9667H6.42273L25.3897 2.11448L25.5307 1.86756H2.33333V12.0303H2.57948C2.6231 7.08018 5.50593 2.11448 11.8753 2.11448H19.5594L0.449097 35.2129H26.1944V25.4762H25.9482C25.9147 29.7907 23.4689 33.8887 18.1503 34.8141L17.9813 34.8429L22.0318 23.7096H33.3785L37.4671 34.9667H33.4338V35.2129H49.264V34.9667H45.2136V17.986H49.8872C54.6433 17.986 57.3711 20.1109 57.3711 23.814V26.8261C57.3711 27.1579 57.3937 27.6432 57.4187 28.049V28.0638L54.9066 34.9652H51.625V35.2113H58.418V34.9652H55.1714L57.4592 28.6808C57.4638 28.7415 57.4662 28.7781 57.4662 28.7781L57.5293 29.3444L57.59 29.7191C57.9717 32.0364 58.8581 33.7399 60.2236 34.7821L60.4199 34.9247C61.4574 35.646 62.7466 36.0113 64.2538 36.0113C66.2502 36.0113 67.5814 35.5135 68.6805 34.342L68.5364 34.2065C67.5238 35.1412 66.6739 35.5198 65.6091 35.5198C63.795 35.5198 62.8455 33.3193 62.8455 31.1492V26.9289C62.8551 25.8817 62.6912 24.8402 62.3602 23.8467L62.315 23.7158V23.7112H70.6146L74.7032 34.9683H70.6699V35.2144H84.3689V34.9683L80.0646 34.9667ZM22.1221 23.4635L27.7117 8.10681L33.2889 23.4635H22.1221ZM45.2159 17.7391V2.11448H48.7834C53.5489 2.11448 56.0649 4.94746 56.0649 10.3042C56.0649 16.0013 54.6207 17.7391 49.8872 17.7391H45.2159ZM62.2184 23.4635L62.1943 23.4027C61.8255 22.5044 61.2886 21.6848 60.6123 20.988L60.3786 20.7543L60.3537 20.731L64.9447 8.10681L70.5219 23.4635H62.2184Z" fill="#13150F"/>
</svg>
