<svg width="50" height="59" viewBox="0 0 50 59" fill="none" xmlns="http://www.w3.org/2000/svg">
<path id="Vector" fill-rule="evenodd" clip-rule="evenodd" d="M15.2039 23.7878C26.2078 19.995 28.0808 10.1149 26.676 1.03081C26.676 0.703032 26.957 0.468907 27.2379 0.562557C37.7736 5.71331 49.6203 16.9513 49.6203 33.8083C49.6203 46.7321 39.5997 58.1574 25.0371 58.1574C19.8408 58.3937 14.7137 56.8927 10.4652 53.8914C6.21659 50.8902 3.0885 46.5595 1.57459 41.583C0.0606937 36.6064 0.247203 31.2674 2.10469 26.4086C3.96217 21.5499 7.38484 17.448 11.8325 14.7505C12.1134 14.5632 12.488 14.7505 12.488 15.0783C12.6285 16.8109 13.0968 21.1656 15.0166 23.7878H15.2039Z" fill="url(#paint0_linear_1507_20702)"/>
<defs>
<linearGradient id="paint0_linear_1507_20702" x1="4906.48" y1="0.541748" x2="-783.425" y2="4843.41" gradientUnits="userSpaceOnUse">
<stop stop-color="#FF7854"/>
<stop offset="1" stop-color="#FD267D"/>
</linearGradient>
</defs>
</svg>
